<?xml version="1.0" encoding="utf-8"?>
<!-- Generator: Adobe Illustrator 23.0.1, SVG Export Plug-In . SVG Version: 6.00 Build 0)  -->
<svg version="1.1" id="Layer_1" xmlns="http://www.w3.org/2000/svg" xmlns:xlink="http://www.w3.org/1999/xlink" x="0px" y="0px"
	 viewBox="0 0 863.6 201.6" style="enable-background:new 0 0 863.6 201.6;" xml:space="preserve">
<style type="text/css">
	.st0{fill:#7FB069;}
	.st1{fill:#E94C4D;}
</style>
<g>
	<path class="st0" d="M87.8,109.7l18.2-0.5c3.7,0,6.7-1.3,9-4l29.5-32.8H176l-40,44c-2.5,2.7-2.5,5.3,0,8l39.7,43.7
		c16.1-17.9,25.8-41.5,25.8-67.4C201.6,45.1,156.4,0,100.8,0c-6.2,0-12.3,0.6-18.2,1.7l-0.3,102.5C82.3,107.9,84.1,109.7,87.8,109.7
		"/>
	<path class="st0" d="M105.5,131.7l-17.7,0.5c-3.7,0-5.5,1.8-5.5,5.5l0.1,62.1c6,1.1,12.1,1.7,18.4,1.7c21.3,0,41-6.6,57.3-17.9
		c-11.4-12.5-25.9-28.5-43.5-48C112,133,109,131.7,105.5,131.7"/>
	<path class="st1" d="M0,100.8c0,41.1,24.6,76.5,60,92.1L60.1,8.6C24.7,24.2,0,59.6,0,100.8"/>
</g>
<g>
	<path class="st0" d="M306.8,152.5h-18.7c-7.3-8-17.9-19.7-32-35.2c-1.5-1.6-3.2-2.4-5.3-2.4h-17.1c-2.2,0-3.2,1.1-3.2,3.3v34.3
		h-13.3V49.1h13.3v49.2c0,2.2,1.1,3.2,3.2,3.2H251c2.2,0,3.9-0.8,5.3-2.4l17.4-19.3h18.6l-23.6,26c-1.5,1.6-1.5,3.1,0,4.7
		L306.8,152.5z"/>
	<path class="st0" d="M402.8,122.8h-73c-2.3,0-3.2,1.1-2.8,3.2c0.7,3.7,2.5,6.8,5.4,9.3s6.3,3.7,10.1,3.7h53.7v13.3h-53.7
		c-8.1,0-14.9-2.8-20.6-8.5s-8.5-12.5-8.5-20.6V109c0-8,2.8-14.8,8.5-20.5s12.5-8.6,20.6-8.6h31.3c8.1,0,14.9,2.9,20.6,8.6
		s8.5,12.5,8.5,20.5v13.8H402.8z M389.2,106.2c-0.7-3.7-2.5-6.8-5.4-9.3s-6.3-3.7-10.1-3.7h-31.3c-3.8,0-7.2,1.2-10.1,3.7
		s-4.7,5.6-5.4,9.3c-0.4,2.3,0.5,3.4,2.8,3.4h56.6C388.7,109.6,389.6,108.4,389.2,106.2"/>
	<path class="st0" d="M425.8,65.9h-13.3V49.1h13.3V65.9z M425.8,152.5h-13.3V79.9h13.3V152.5z"/>
	<path class="st1" d="M574.9,152.3h-13.3V109c0-4.3-1.5-8.1-4.6-11.2s-6.8-4.7-11.1-4.7h-18c-4.3,0-8,1.6-11.1,4.7
		s-4.6,6.9-4.6,11.2h-0.1v43.2h-13.3V109c0-4.3-1.5-8.1-4.6-11.2s-6.8-4.7-11.1-4.7h-18c-4.3,0-8,1.5-11.1,4.6s-4.6,6.8-4.6,11.1
		v43.4h-13.3V79.9h13.3v1.5c0,0.7,0.3,1.3,0.9,1.6c0.6,0.4,1.2,0.4,1.8,0.1c4-2.2,8.4-3.2,13.1-3.2h18c9,0,16.6,3.6,22.6,10.9
		c5.9-7.3,13.4-10.9,22.4-10.9h18c8.1,0,14.9,2.8,20.6,8.5c5.7,5.7,8.5,12.5,8.5,20.6v43.3H574.9z"/>
	<path class="st1" d="M671.3,122.8h-73c-2.3,0-3.2,1.1-2.8,3.2c0.7,3.7,2.5,6.8,5.4,9.3s6.3,3.7,10.1,3.7h53.7v13.3H611
		c-8.1,0-14.9-2.8-20.6-8.5c-5.7-5.7-8.5-12.5-8.5-20.6V109c0-8,2.8-14.8,8.5-20.5s12.5-8.6,20.6-8.6h31.3c8.1,0,14.9,2.9,20.6,8.6
		c5.7,5.7,8.5,12.5,8.5,20.5L671.3,122.8L671.3,122.8z M657.7,106.2c-0.7-3.7-2.5-6.8-5.4-9.3s-6.3-3.7-10.1-3.7H611
		c-3.8,0-7.2,1.2-10.1,3.7c-2.9,2.5-4.7,5.6-5.4,9.3c-0.4,2.3,0.5,3.4,2.8,3.4h56.6C657.2,109.6,658.1,108.4,657.7,106.2"/>
	<path class="st1" d="M767.4,152.3h-13.3V109c0-4.3-1.5-8.1-4.6-11.2s-6.8-4.7-11.1-4.7h-31.3c-4.3,0-8,1.5-11.1,4.6
		s-4.6,6.8-4.6,11.1v43.4h-13.3V79.9h13.3v1.5c0,0.7,0.3,1.3,0.9,1.6c0.6,0.4,1.2,0.4,1.8,0.1c4-2.2,8.4-3.2,13.1-3.2h31.3
		c8.1,0,14.9,2.8,20.6,8.5c5.7,5.7,8.5,12.5,8.5,20.6v43.3H767.4z"/>
	<path class="st1" d="M863.6,123.2c0,8.1-2.8,15-8.5,20.7s-12.5,8.6-20.6,8.6h-31.3c-8.1,0-14.9-2.9-20.6-8.6
		c-5.7-5.7-8.5-12.6-8.5-20.7V109c0-8.1,2.8-14.9,8.5-20.6s12.5-8.5,20.6-8.5h31.3c8.1,0,14.9,2.8,20.6,8.5
		c5.7,5.7,8.5,12.5,8.5,20.6V123.2z M850.3,123.2V109c0-4.3-1.6-8.1-4.6-11.2c-3.1-3.1-6.8-4.7-11.1-4.7h-31.3
		c-4.3,0-8,1.6-11.1,4.7s-4.6,6.8-4.6,11.2v14.2c0,4.3,1.5,8.1,4.6,11.2c3.1,3.2,6.8,4.7,11.1,4.7h31.3c4.3,0,8-1.6,11.1-4.7
		C848.7,131.3,850.3,127.6,850.3,123.2"/>
</g>
</svg>
